<svg width="671" height="176" viewBox="0 0 671 176" fill="none" xmlns="http://www.w3.org/2000/svg">
<path d="M61.2045 32.6364C60.8106 31.0303 60.1894 29.6212 59.3409 28.4091C58.4924 27.1667 57.4318 26.1212 56.1591 25.2727C54.9167 24.3939 53.4621 23.7424 51.7954 23.3182C50.1591 22.8636 48.3561 22.6364 46.3864 22.6364C42.1439 22.6364 38.5227 23.6515 35.5227 25.6818C32.553 27.7121 30.2803 30.6364 28.7045 34.4545C27.1591 38.2727 26.3864 42.8788 26.3864 48.2727C26.3864 53.7273 27.1288 58.3939 28.6136 62.2727C30.0985 66.1515 32.3106 69.1212 35.25 71.1818C38.1894 73.2424 41.8409 74.2727 46.2045 74.2727C50.053 74.2727 53.25 73.7121 55.7954 72.5909C58.3712 71.4697 60.2954 69.8788 61.5682 67.8182C62.8409 65.7576 63.4773 63.3333 63.4773 60.5454L67.8409 61H46.5682V43H87.8409V55.9091C87.8409 64.3939 86.0379 71.6515 82.4318 77.6818C78.856 83.6818 73.9167 88.2879 67.6136 91.5C61.3409 94.6818 54.1439 96.2727 46.0227 96.2727C36.9621 96.2727 29.0076 94.3485 22.1591 90.5C15.3106 86.6515 9.96211 81.1667 6.11363 74.0454C2.29544 66.9242 0.386353 58.4545 0.386353 48.6364C0.386353 40.9394 1.55302 34.1212 3.88635 28.1818C6.24999 22.2424 9.52272 17.2273 13.7045 13.1364C17.8864 9.01514 22.7197 5.90908 28.2045 3.81817C33.6894 1.69696 39.5682 0.636353 45.8409 0.636353C51.3561 0.636353 56.4773 1.42423 61.2045 2.99999C65.9621 4.54544 70.1591 6.75756 73.7954 9.63635C77.4621 12.4848 80.4167 15.8636 82.6591 19.7727C84.9015 23.6818 86.2651 27.9697 86.75 32.6364H61.2045Z" fill="#4C4C6D"/>
<path d="M99.9886 95V25.1818H124.352V38.4545H125.08C126.352 33.5454 128.367 29.9545 131.125 27.6818C133.913 25.4091 137.17 24.2727 140.898 24.2727C141.989 24.2727 143.064 24.3636 144.125 24.5454C145.216 24.697 146.261 24.9242 147.261 25.2273V46.6364C146.019 46.2121 144.489 45.8939 142.67 45.6818C140.852 45.4697 139.292 45.3636 137.989 45.3636C135.534 45.3636 133.322 45.9242 131.352 47.0454C129.413 48.1364 127.883 49.6818 126.761 51.6818C125.64 53.6515 125.08 55.9697 125.08 58.6364V95H99.9886Z" fill="#4C4C6D"/>
<path d="M171.693 96.0909C167.239 96.0909 163.299 95.3636 159.875 93.9091C156.481 92.4242 153.814 90.1818 151.875 87.1818C149.936 84.1818 148.966 80.3636 148.966 75.7273C148.966 71.9091 149.617 68.6515 150.92 65.9545C152.223 63.2273 154.042 61 156.375 59.2727C158.708 57.5454 161.42 56.2273 164.511 55.3182C167.633 54.4091 170.996 53.8182 174.602 53.5454C178.511 53.2424 181.648 52.8788 184.011 52.4545C186.405 52 188.133 51.3788 189.193 50.5909C190.254 49.7727 190.784 48.697 190.784 47.3636V47.1818C190.784 45.3636 190.087 43.9697 188.693 43C187.299 42.0303 185.511 41.5454 183.33 41.5454C180.936 41.5454 178.981 42.0757 177.466 43.1364C175.981 44.1667 175.087 45.7576 174.784 47.9091H151.693C151.996 43.6667 153.345 39.7576 155.739 36.1818C158.163 32.5758 161.693 29.697 166.33 27.5454C170.966 25.3636 176.754 24.2727 183.693 24.2727C188.693 24.2727 193.178 24.8636 197.148 26.0454C201.117 27.197 204.496 28.8182 207.284 30.9091C210.072 32.9697 212.193 35.3939 213.648 38.1818C215.133 40.9394 215.875 43.9394 215.875 47.1818V95H192.42V85.1818H191.875C190.481 87.7879 188.784 89.8939 186.784 91.5C184.814 93.1061 182.557 94.2727 180.011 95C177.496 95.7273 174.723 96.0909 171.693 96.0909ZM179.875 80.2727C181.784 80.2727 183.572 79.8788 185.239 79.0909C186.936 78.303 188.314 77.1667 189.375 75.6818C190.436 74.197 190.966 72.3939 190.966 70.2727V64.4545C190.299 64.7273 189.587 64.9848 188.83 65.2273C188.102 65.4697 187.314 65.697 186.466 65.9091C185.648 66.1212 184.769 66.3182 183.83 66.5C182.92 66.6818 181.966 66.8485 180.966 67C179.027 67.303 177.436 67.803 176.193 68.5C174.981 69.1667 174.072 70 173.466 71C172.89 71.9697 172.602 73.0606 172.602 74.2727C172.602 76.2121 173.284 77.697 174.648 78.7273C176.011 79.7576 177.754 80.2727 179.875 80.2727Z" fill="#4C4C6D"/>
<path d="M227.5 95V1.90908H252.591V37.3636H252.955C253.864 35 255.197 32.8333 256.955 30.8636C258.712 28.8636 260.894 27.2727 263.5 26.0909C266.106 24.8788 269.136 24.2727 272.591 24.2727C277.197 24.2727 281.576 25.5 285.727 27.9545C289.909 30.4091 293.303 34.2727 295.909 39.5454C298.545 44.8182 299.864 51.6667 299.864 60.0909C299.864 68.1515 298.606 74.8333 296.091 80.1364C293.606 85.4394 290.273 89.3939 286.091 92C281.939 94.6061 277.379 95.9091 272.409 95.9091C269.136 95.9091 266.212 95.3788 263.636 94.3182C261.091 93.2273 258.909 91.7576 257.091 89.9091C255.303 88.0303 253.924 85.9091 252.955 83.5454H252.409V95H227.5ZM252.045 60.0909C252.045 63.4848 252.485 66.4242 253.364 68.9091C254.273 71.3636 255.545 73.2727 257.182 74.6364C258.848 75.9697 260.833 76.6364 263.136 76.6364C265.439 76.6364 267.394 75.9848 269 74.6818C270.636 73.3485 271.879 71.4545 272.727 69C273.606 66.5151 274.045 63.5454 274.045 60.0909C274.045 56.6364 273.606 53.6818 272.727 51.2273C271.879 48.7424 270.636 46.8485 269 45.5454C267.394 44.2121 265.439 43.5454 263.136 43.5454C260.833 43.5454 258.848 44.2121 257.182 45.5454C255.545 46.8485 254.273 48.7424 253.364 51.2273C252.485 53.6818 252.045 56.6364 252.045 60.0909Z" fill="#4C4C6D"/>
<path d="M425.943 116.091C421.489 116.091 417.549 115.364 414.125 113.909C410.731 112.424 408.064 110.182 406.125 107.182C404.186 104.182 403.216 100.364 403.216 95.7273C403.216 91.9091 403.867 88.6515 405.17 85.9545C406.473 83.2273 408.292 81 410.625 79.2727C412.958 77.5454 415.67 76.2273 418.761 75.3182C421.883 74.4091 425.246 73.8182 428.852 73.5454C432.761 73.2424 435.898 72.8788 438.261 72.4545C440.655 72 442.383 71.3788 443.443 70.5909C444.504 69.7727 445.034 68.697 445.034 67.3636V67.1818C445.034 65.3636 444.337 63.9697 442.943 63C441.549 62.0303 439.761 61.5454 437.58 61.5454C435.186 61.5454 433.231 62.0757 431.716 63.1364C430.231 64.1667 429.337 65.7576 429.034 67.9091H405.943C406.246 63.6667 407.595 59.7576 409.989 56.1818C412.413 52.5757 415.943 49.697 420.58 47.5454C425.216 45.3636 431.004 44.2727 437.943 44.2727C442.943 44.2727 447.428 44.8636 451.398 46.0454C455.367 47.197 458.746 48.8182 461.534 50.9091C464.322 52.9697 466.443 55.3939 467.898 58.1818C469.383 60.9394 470.125 63.9394 470.125 67.1818V115H446.67V105.182H446.125C444.731 107.788 443.034 109.894 441.034 111.5C439.064 113.106 436.807 114.273 434.261 115C431.746 115.727 428.973 116.091 425.943 116.091ZM434.125 100.273C436.034 100.273 437.822 99.8788 439.489 99.0909C441.186 98.303 442.564 97.1667 443.625 95.6818C444.686 94.197 445.216 92.3939 445.216 90.2727V84.4545C444.549 84.7273 443.837 84.9848 443.08 85.2273C442.352 85.4697 441.564 85.697 440.716 85.9091C439.898 86.1212 439.019 86.3182 438.08 86.5C437.17 86.6818 436.216 86.8485 435.216 87C433.277 87.303 431.686 87.803 430.443 88.5C429.231 89.1667 428.322 90 427.716 91C427.14 91.9697 426.852 93.0606 426.852 94.2727C426.852 96.2121 427.534 97.697 428.898 98.7273C430.261 99.7576 432.004 100.273 434.125 100.273Z" fill="#4C4C6D"/>
<path d="M481.75 115V21.9091H506.841V57.3636H507.205C508.114 55 509.447 52.8333 511.205 50.8636C512.962 48.8636 515.144 47.2727 517.75 46.0909C520.356 44.8788 523.386 44.2727 526.841 44.2727C531.447 44.2727 535.826 45.5 539.977 47.9545C544.159 50.4091 547.553 54.2727 550.159 59.5454C552.795 64.8182 554.114 71.6667 554.114 80.0909C554.114 88.1515 552.856 94.8333 550.341 100.136C547.856 105.439 544.523 109.394 540.341 112C536.189 114.606 531.629 115.909 526.659 115.909C523.386 115.909 520.462 115.379 517.886 114.318C515.341 113.227 513.159 111.758 511.341 109.909C509.553 108.03 508.174 105.909 507.205 103.545H506.659V115H481.75ZM506.295 80.0909C506.295 83.4848 506.735 86.4242 507.614 88.9091C508.523 91.3636 509.795 93.2727 511.432 94.6364C513.099 95.9697 515.083 96.6364 517.386 96.6364C519.689 96.6364 521.644 95.9848 523.25 94.6818C524.886 93.3485 526.129 91.4545 526.977 89C527.856 86.5151 528.295 83.5454 528.295 80.0909C528.295 76.6364 527.856 73.6818 526.977 71.2273C526.129 68.7424 524.886 66.8485 523.25 65.5454C521.644 64.2121 519.689 63.5454 517.386 63.5454C515.083 63.5454 513.099 64.2121 511.432 65.5454C509.795 66.8485 508.523 68.7424 507.614 71.2273C506.735 73.6818 506.295 76.6364 506.295 80.0909Z" fill="#4C4C6D"/>
<path d="M589.705 21.9091V115H564.614V21.9091H589.705Z" fill="#4C4C6D"/>
<path d="M635.943 116.273C628.489 116.273 622.064 114.848 616.67 112C611.307 109.121 607.17 105 604.261 99.6364C601.383 94.2424 599.943 87.7879 599.943 80.2727C599.943 73.0606 601.398 66.7576 604.307 61.3636C607.216 55.9697 611.322 51.7727 616.625 48.7727C621.928 45.7727 628.186 44.2727 635.398 44.2727C640.67 44.2727 645.443 45.0909 649.716 46.7273C653.989 48.3636 657.64 50.7424 660.67 53.8636C663.701 56.9545 666.034 60.7121 667.67 65.1364C669.307 69.5606 670.125 74.5454 670.125 80.0909V85.9091H607.761V72.0909H647.034C647.004 70.0909 646.489 68.3333 645.489 66.8182C644.519 65.2727 643.201 64.0757 641.534 63.2273C639.898 62.3485 638.034 61.9091 635.943 61.9091C633.913 61.9091 632.049 62.3485 630.352 63.2273C628.655 64.0757 627.292 65.2576 626.261 66.7727C625.261 68.2879 624.731 70.0606 624.67 72.0909V87C624.67 89.2424 625.14 91.2424 626.08 93C627.019 94.7576 628.367 96.1364 630.125 97.1364C631.883 98.1364 634.004 98.6364 636.489 98.6364C638.216 98.6364 639.792 98.3939 641.216 97.9091C642.67 97.4242 643.913 96.7273 644.943 95.8182C645.973 94.8788 646.731 93.7576 647.216 92.4545H670.125C669.337 97.303 667.473 101.515 664.534 105.091C661.595 108.636 657.701 111.394 652.852 113.364C648.034 115.303 642.398 116.273 635.943 116.273Z" fill="#4C4C6D"/>
<path d="M304.163 143.95L289.763 129.55L346.975 72.3389L361.374 86.7382L341.575 106.537L393.001 157.963L375.387 175.577L323.962 124.151L304.163 143.95Z" fill="black"/>
<path d="M390 53C390 64.0457 381.046 73 370 73C358.954 73 350 64.0457 350 53C350 41.9543 358.954 33 370 33C381.046 33 390 41.9543 390 53Z" fill="black"/>
</svg>
